<svg width="28" height="28" viewBox="0 0 28 28" fill="none" xmlns="http://www.w3.org/2000/svg">
<path d="M23.3335 14.0003V8.16699H25.6668V15.167H23.3335M23.3335 19.8337H25.6668V17.5003H23.3335M11.6668 15.167C14.7818 15.167 21.0002 16.7303 21.0002 19.8337V23.3337H2.3335V19.8337C2.3335 16.7303 8.55183 15.167 11.6668 15.167ZM11.6668 4.66699C12.9045 4.66699 14.0915 5.15866 14.9667 6.03383C15.8418 6.909 16.3335 8.09598 16.3335 9.33366C16.3335 10.5713 15.8418 11.7583 14.9667 12.6335C14.0915 13.5087 12.9045 14.0003 11.6668 14.0003C10.4292 14.0003 9.24217 13.5087 8.367 12.6335C7.49183 11.7583 7.00016 10.5713 7.00016 9.33366C7.00016 8.09598 7.49183 6.909 8.367 6.03383C9.24217 5.15866 10.4292 4.66699 11.6668 4.66699ZM11.6668 17.3837C8.20183 17.3837 4.55016 19.087 4.55016 19.8337V21.117H18.7835V19.8337C18.7835 19.087 15.1318 17.3837 11.6668 17.3837ZM11.6668 6.88366C11.017 6.88366 10.3939 7.14178 9.93442 7.60125C9.47495 8.06071 9.21683 8.68388 9.21683 9.33366C9.21683 9.98344 9.47495 10.6066 9.93442 11.0661C10.3939 11.5255 11.017 11.7837 11.6668 11.7837C12.3166 11.7837 12.9398 11.5255 13.3992 11.0661C13.8587 10.6066 14.1168 9.98344 14.1168 9.33366C14.1168 8.68388 13.8587 8.06071 13.3992 7.60125C12.9398 7.14178 12.3166 6.88366 11.6668 6.88366Z" fill="black"/>
</svg>
