<svg width="18" height="18" viewBox="0 0 18 18" fill="none" xmlns="http://www.w3.org/2000/svg">
<path d="M13.6668 17.1663C12.7386 17.1663 11.8483 16.7976 11.192 16.1412C10.5356 15.4848 10.1668 14.5946 10.1668 13.6663C10.1668 12.7381 10.5356 11.8478 11.192 11.1915C11.8483 10.5351 12.7386 10.1663 13.6668 10.1663C14.5951 10.1663 15.4853 10.5351 16.1417 11.1915C16.7981 11.8478 17.1668 12.7381 17.1668 13.6663C17.1668 14.5946 16.7981 15.4848 16.1417 16.1412C15.4853 16.7976 14.5951 17.1663 13.6668 17.1663ZM4.3335 17.1663C3.40524 17.1663 2.515 16.7976 1.85862 16.1412C1.20225 15.4848 0.833496 14.5946 0.833496 13.6663C0.833496 12.7381 1.20225 11.8478 1.85862 11.1915C2.515 10.5351 3.40524 10.1663 4.3335 10.1663C5.26175 10.1663 6.15199 10.5351 6.80837 11.1915C7.46475 11.8478 7.8335 12.7381 7.8335 13.6663C7.8335 14.5946 7.46475 15.4848 6.80837 16.1412C6.15199 16.7976 5.26175 17.1663 4.3335 17.1663ZM13.6668 7.83301C12.7386 7.83301 11.8483 7.46426 11.192 6.80788C10.5356 6.1515 10.1668 5.26127 10.1668 4.33301C10.1668 3.40475 10.5356 2.51451 11.192 1.85813C11.8483 1.20176 12.7386 0.833008 13.6668 0.833008C14.5951 0.833008 15.4853 1.20176 16.1417 1.85813C16.7981 2.51451 17.1668 3.40475 17.1668 4.33301C17.1668 5.26127 16.7981 6.1515 16.1417 6.80788C15.4853 7.46426 14.5951 7.83301 13.6668 7.83301ZM4.3335 7.83301C3.40524 7.83301 2.515 7.46426 1.85862 6.80788C1.20225 6.1515 0.833496 5.26127 0.833496 4.33301C0.833496 3.40475 1.20225 2.51451 1.85862 1.85813C2.515 1.20176 3.40524 0.833008 4.3335 0.833008C5.26175 0.833008 6.15199 1.20176 6.80837 1.85813C7.46475 2.51451 7.8335 3.40475 7.8335 4.33301C7.8335 5.26127 7.46475 6.1515 6.80837 6.80788C6.15199 7.46426 5.26175 7.83301 4.3335 7.83301Z" fill="black"/>
</svg>
