<svg width="16" height="16" viewBox="0 0 16 16" fill="none" xmlns="http://www.w3.org/2000/svg">
<path d="M12 10.6663C11.4747 10.6663 11 10.873 10.644 11.2043L5.94 8.46634C5.97333 8.31301 6 8.15967 6 7.99967C6 7.83967 5.97333 7.68634 5.94 7.53301L10.64 4.79301C11 5.12634 11.4733 5.33301 12 5.33301C13.1067 5.33301 14 4.43967 14 3.33301C14 2.22634 13.1067 1.33301 12 1.33301C10.8933 1.33301 10 2.22634 10 3.33301C10 3.49301 10.0267 3.64634 10.06 3.79967L5.36 6.53967C5 6.20634 4.52667 5.99967 4 5.99967C2.89333 5.99967 2 6.89301 2 7.99967C2 9.10634 2.89333 9.99967 4 9.99967C4.52667 9.99967 5 9.79301 5.36 9.45967L10.0587 12.205C10.0211 12.356 10.0014 12.5108 10 12.6663C10 13.0619 10.1173 13.4486 10.3371 13.7775C10.5568 14.1064 10.8692 14.3627 11.2346 14.5141C11.6001 14.6655 12.0022 14.7051 12.3902 14.6279C12.7781 14.5507 13.1345 14.3603 13.4142 14.0806C13.6939 13.8008 13.8844 13.4445 13.9616 13.0565C14.0387 12.6686 13.9991 12.2664 13.8478 11.901C13.6964 11.5355 13.44 11.2232 13.1111 11.0034C12.7822 10.7836 12.3956 10.6663 12 10.6663Z" fill="white"/>
</svg>
